<svg width="187" height="29" viewBox="0 0 187 29" fill="none" xmlns="http://www.w3.org/2000/svg">
<path d="M180.612 28.3997C178.559 28.3997 177.026 27.9198 176.012 26.9597C174.999 25.9997 174.492 24.5331 174.492 22.5597V2.23975H177.852V22.5597C177.852 23.5464 178.079 24.2797 178.532 24.7597C178.986 25.2131 179.679 25.4397 180.612 25.4397H186.292V28.3997H180.612ZM167.492 10.1597V7.19975H186.292V10.1597H167.492Z" fill="#737373"/>
<path d="M150.625 28.3997V7.19971H153.425L153.745 12.5597L153.425 12.4797C153.692 10.6664 154.265 9.33304 155.145 8.47971C156.052 7.62637 157.252 7.19971 158.745 7.19971H163.105V10.2397H158.785C157.745 10.2397 156.865 10.453 156.145 10.8797C155.452 11.2797 154.919 11.8797 154.545 12.6797C154.172 13.453 153.985 14.4264 153.985 15.5997V28.3997H150.625ZM145.105 28.3997V25.4397H160.705V28.3997H145.105ZM145.105 10.1597V7.19971H152.465V10.1597H145.105Z" fill="#737373"/>
<path d="M129.524 28.8797C127.577 28.8797 125.87 28.4264 124.404 27.5197C122.964 26.6131 121.844 25.3331 121.044 23.6797C120.244 21.9997 119.844 20.0397 119.844 17.7997C119.844 15.5331 120.244 13.5731 121.044 11.9197C121.844 10.2664 122.964 8.9864 124.404 8.07973C125.87 7.17306 127.577 6.71973 129.524 6.71973C131.47 6.71973 133.164 7.17306 134.604 8.07973C136.07 8.9864 137.204 10.2664 138.004 11.9197C138.804 13.5731 139.204 15.5331 139.204 17.7997C139.204 20.0397 138.804 21.9997 138.004 23.6797C137.204 25.3331 136.07 26.6131 134.604 27.5197C133.164 28.4264 131.47 28.8797 129.524 28.8797ZM129.524 25.6797C131.47 25.6797 132.977 24.9864 134.044 23.5997C135.137 22.1864 135.684 20.2531 135.684 17.7997C135.684 15.3464 135.137 13.4264 134.044 12.0397C132.977 10.6264 131.47 9.91973 129.524 9.91973C127.577 9.91973 126.057 10.6264 124.964 12.0397C123.897 13.4264 123.364 15.3464 123.364 17.7997C123.364 20.2531 123.897 22.1864 124.964 23.5997C126.057 24.9864 127.577 25.6797 129.524 25.6797Z" fill="#737373"/>
<path d="M97.1367 28.4V0H105.777C107.75 0 109.47 0.346667 110.937 1.04C112.403 1.73333 113.537 2.73333 114.337 4.04C115.137 5.32 115.537 6.86667 115.537 8.68C115.537 10.4933 115.137 12.0533 114.337 13.36C113.537 14.64 112.403 15.6267 110.937 16.32C109.47 17.0133 107.75 17.36 105.777 17.36H100.577V28.4H97.1367ZM100.577 14H105.377C107.617 14 109.27 13.5467 110.337 12.64C111.403 11.7067 111.937 10.3867 111.937 8.68C111.937 6.94667 111.403 5.62667 110.337 4.72C109.27 3.81333 107.617 3.36 105.377 3.36H100.577V14Z" fill="#737373"/>
<path d="M73.1523 28.4V0H76.5123V18.6L86.8323 7.2H91.3123L82.9523 16.2L91.7123 28.4H87.6323L80.6723 18.48L76.5123 22.88V28.4H73.1523Z" fill="#0A0A0A"/>
<path d="M58.1272 28.8797C56.1539 28.8797 54.4339 28.4264 52.9672 27.5197C51.5005 26.6131 50.3672 25.3331 49.5672 23.6797C48.7672 21.9997 48.3672 20.0397 48.3672 17.7997C48.3672 15.5597 48.7672 13.6131 49.5672 11.9597C50.3672 10.3064 51.5005 9.0264 52.9672 8.11973C54.4339 7.18639 56.1539 6.71973 58.1272 6.71973C59.7005 6.71973 61.1005 7.01306 62.3272 7.59973C63.5539 8.15973 64.5672 8.98639 65.3672 10.0797C66.1672 11.1731 66.7139 12.5064 67.0072 14.0797L63.4872 14.3197C63.1672 12.9064 62.5272 11.8264 61.5672 11.0797C60.6339 10.3064 59.4872 9.91973 58.1272 9.91973C56.1805 9.91973 54.6472 10.6264 53.5272 12.0397C52.4339 13.4264 51.8872 15.3464 51.8872 17.7997C51.8872 20.2531 52.4339 22.1864 53.5272 23.5997C54.6472 24.9864 56.1805 25.6797 58.1272 25.6797C59.4872 25.6797 60.6605 25.2797 61.6472 24.4797C62.6605 23.6797 63.3272 22.4797 63.6472 20.8797L67.1672 21.1197C66.8739 22.6931 66.3139 24.0664 65.4872 25.2397C64.6605 26.3864 63.6205 27.2797 62.3672 27.9197C61.1139 28.5597 59.7005 28.8797 58.1272 28.8797Z" fill="#0A0A0A"/>
<path d="M30.7861 28.8797C29.4528 28.8797 28.2528 28.6397 27.1861 28.1597C26.1194 27.6797 25.2794 27.0131 24.6661 26.1597C24.0528 25.2797 23.7461 24.2664 23.7461 23.1197C23.7461 21.3064 24.2794 19.9064 25.3461 18.9197C26.4394 17.9064 28.1461 17.1731 30.4661 16.7197L37.5861 15.2797C37.5861 13.4664 37.1728 12.1197 36.3461 11.2397C35.5461 10.3597 34.3861 9.91973 32.8661 9.91973C31.3994 9.91973 30.2528 10.2531 29.4261 10.9197C28.5994 11.5597 28.0261 12.4931 27.7061 13.7197L24.1461 13.4397C24.5461 11.4397 25.4928 9.82639 26.9861 8.59973C28.5061 7.34639 30.4661 6.71973 32.8661 6.71973C35.4261 6.71973 37.4128 7.49306 38.8261 9.03973C40.2394 10.5597 40.9461 12.6664 40.9461 15.3597V24.1597C40.9461 24.6397 41.0528 24.9731 41.2661 25.1597C41.4794 25.3464 41.7994 25.4397 42.2261 25.4397H43.5861V28.3997C43.4261 28.4264 43.1728 28.4397 42.8261 28.4397C42.4794 28.4664 42.1461 28.4797 41.8261 28.4797C40.9194 28.4797 40.1461 28.3331 39.5061 28.0397C38.8928 27.7464 38.4261 27.2797 38.1061 26.6397C37.7861 25.9731 37.6128 25.1197 37.5861 24.0797H38.2261C38.0394 24.9864 37.5861 25.8131 36.8661 26.5597C36.1728 27.2797 35.2928 27.8531 34.2261 28.2797C33.1594 28.6797 32.0128 28.8797 30.7861 28.8797ZM31.1061 25.9197C32.5461 25.9197 33.7461 25.6797 34.7061 25.1997C35.6661 24.6931 36.3861 23.9997 36.8661 23.1197C37.3461 22.2131 37.5861 21.1731 37.5861 19.9997V18.1597L31.1061 19.4397C29.6661 19.7064 28.6661 20.1197 28.1061 20.6797C27.5461 21.2131 27.2661 21.9197 27.2661 22.7997C27.2661 23.7864 27.5994 24.5597 28.2661 25.1197C28.9594 25.6531 29.9061 25.9197 31.1061 25.9197Z" fill="#0A0A0A"/>
<path d="M0 28.4V0H3.44V13.8L1.68 12.44H17.52L15.76 13.8V0H19.2V28.4H15.76V14.44L17.52 15.8H1.68L3.44 14.44V28.4H0Z" fill="#0A0A0A"/>
</svg>
