<svg width="187" height="29" viewBox="0 0 187 29" fill="none" xmlns="http://www.w3.org/2000/svg">
<path d="M180.611 28.3997C178.557 28.3997 177.024 27.9197 176.011 26.9597C174.997 25.9997 174.491 24.5331 174.491 22.5597V2.23975H177.851V22.5597C177.851 23.5464 178.077 24.2797 178.531 24.7597C178.984 25.2131 179.677 25.4397 180.611 25.4397H186.291V28.3997H180.611ZM167.491 10.1597V7.19975H186.291V10.1597H167.491Z" fill="#737373"/>
<path d="M150.626 28.3997V7.19971H153.426L153.746 12.5597L153.426 12.4797C153.693 10.6664 154.266 9.33304 155.146 8.47971C156.053 7.62637 157.253 7.19971 158.746 7.19971H163.106V10.2397H158.786C157.746 10.2397 156.866 10.453 156.146 10.8797C155.453 11.2797 154.92 11.8797 154.546 12.6797C154.173 13.453 153.986 14.4264 153.986 15.5997V28.3997H150.626ZM145.106 28.3997V25.4397H160.706V28.3997H145.106ZM145.106 10.1597V7.19971H152.466V10.1597H145.106Z" fill="#737373"/>
<path d="M129.522 28.8797C127.575 28.8797 125.868 28.4264 124.402 27.5197C122.962 26.6131 121.842 25.3331 121.042 23.6797C120.242 21.9997 119.842 20.0397 119.842 17.7997C119.842 15.5331 120.242 13.5731 121.042 11.9197C121.842 10.2664 122.962 8.9864 124.402 8.07973C125.868 7.17306 127.575 6.71973 129.522 6.71973C131.468 6.71973 133.162 7.17306 134.602 8.07973C136.068 8.9864 137.202 10.2664 138.002 11.9197C138.802 13.5731 139.202 15.5331 139.202 17.7997C139.202 20.0397 138.802 21.9997 138.002 23.6797C137.202 25.3331 136.068 26.6131 134.602 27.5197C133.162 28.4264 131.468 28.8797 129.522 28.8797ZM129.522 25.6797C131.468 25.6797 132.975 24.9864 134.042 23.5997C135.135 22.1864 135.682 20.2531 135.682 17.7997C135.682 15.3464 135.135 13.4264 134.042 12.0397C132.975 10.6264 131.468 9.91973 129.522 9.91973C127.575 9.91973 126.055 10.6264 124.962 12.0397C123.895 13.4264 123.362 15.3464 123.362 17.7997C123.362 20.2531 123.895 22.1864 124.962 23.5997C126.055 24.9864 127.575 25.6797 129.522 25.6797Z" fill="#737373"/>
<path d="M97.1375 28.4V0H105.777C107.751 0 109.471 0.346667 110.937 1.04C112.404 1.73333 113.537 2.73333 114.337 4.04C115.137 5.32 115.537 6.86667 115.537 8.68C115.537 10.4933 115.137 12.0533 114.337 13.36C113.537 14.64 112.404 15.6267 110.937 16.32C109.471 17.0133 107.751 17.36 105.777 17.36H100.577V28.4H97.1375ZM100.577 14H105.377C107.617 14 109.271 13.5467 110.337 12.64C111.404 11.7067 111.937 10.3867 111.937 8.68C111.937 6.94667 111.404 5.62667 110.337 4.72C109.271 3.81333 107.617 3.36 105.377 3.36H100.577V14Z" fill="#737373"/>
<path d="M73.1531 28.4V0H76.5131V18.6L86.8331 7.2H91.3131L82.9531 16.2L91.7131 28.4H87.6331L80.6731 18.48L76.5131 22.88V28.4H73.1531Z" fill="#0A0A0A"/>
<path d="M58.1288 28.8797C56.1554 28.8797 54.4354 28.4264 52.9688 27.5197C51.5021 26.6131 50.3688 25.3331 49.5688 23.6797C48.7688 21.9997 48.3688 20.0397 48.3688 17.7997C48.3688 15.5597 48.7688 13.6131 49.5688 11.9597C50.3688 10.3064 51.5021 9.0264 52.9688 8.11973C54.4354 7.18639 56.1554 6.71973 58.1288 6.71973C59.7021 6.71973 61.1021 7.01306 62.3288 7.59973C63.5554 8.15973 64.5688 8.98639 65.3688 10.0797C66.1688 11.1731 66.7154 12.5064 67.0088 14.0797L63.4888 14.3197C63.1688 12.9064 62.5288 11.8264 61.5688 11.0797C60.6354 10.3064 59.4888 9.91973 58.1288 9.91973C56.1821 9.91973 54.6488 10.6264 53.5288 12.0397C52.4354 13.4264 51.8888 15.3464 51.8888 17.7997C51.8888 20.2531 52.4354 22.1864 53.5288 23.5997C54.6488 24.9864 56.1821 25.6797 58.1288 25.6797C59.4888 25.6797 60.6621 25.2797 61.6488 24.4797C62.6621 23.6797 63.3288 22.4797 63.6488 20.8797L67.1688 21.1197C66.8754 22.6931 66.3154 24.0664 65.4888 25.2397C64.6621 26.3864 63.6221 27.2797 62.3688 27.9197C61.1154 28.5597 59.7021 28.8797 58.1288 28.8797Z" fill="#0A0A0A"/>
<path d="M30.7844 28.8797C29.4511 28.8797 28.2511 28.6397 27.1844 28.1597C26.1177 27.6797 25.2777 27.0131 24.6644 26.1597C24.0511 25.2797 23.7444 24.2664 23.7444 23.1197C23.7444 21.3064 24.2777 19.9064 25.3444 18.9197C26.4377 17.9064 28.1444 17.1731 30.4644 16.7197L37.5844 15.2797C37.5844 13.4664 37.1711 12.1197 36.3444 11.2397C35.5444 10.3597 34.3844 9.91973 32.8644 9.91973C31.3977 9.91973 30.2511 10.2531 29.4244 10.9197C28.5977 11.5597 28.0244 12.4931 27.7044 13.7197L24.1444 13.4397C24.5444 11.4397 25.4911 9.82639 26.9844 8.59973C28.5044 7.34639 30.4644 6.71973 32.8644 6.71973C35.4244 6.71973 37.4111 7.49306 38.8244 9.03973C40.2377 10.5597 40.9444 12.6664 40.9444 15.3597V24.1597C40.9444 24.6397 41.0511 24.9731 41.2644 25.1597C41.4777 25.3464 41.7977 25.4397 42.2244 25.4397H43.5844V28.3997C43.4244 28.4264 43.1711 28.4397 42.8244 28.4397C42.4777 28.4664 42.1444 28.4797 41.8244 28.4797C40.9177 28.4797 40.1444 28.3331 39.5044 28.0397C38.8911 27.7464 38.4244 27.2797 38.1044 26.6397C37.7844 25.9731 37.6111 25.1197 37.5844 24.0797H38.2244C38.0377 24.9864 37.5844 25.8131 36.8644 26.5597C36.1711 27.2797 35.2911 27.8531 34.2244 28.2797C33.1577 28.6797 32.0111 28.8797 30.7844 28.8797ZM31.1044 25.9197C32.5444 25.9197 33.7444 25.6797 34.7044 25.1997C35.6644 24.6931 36.3844 23.9997 36.8644 23.1197C37.3444 22.2131 37.5844 21.1731 37.5844 19.9997V18.1597L31.1044 19.4397C29.6644 19.7064 28.6644 20.1197 28.1044 20.6797C27.5444 21.2131 27.2644 21.9197 27.2644 22.7997C27.2644 23.7864 27.5977 24.5597 28.2644 25.1197C28.9577 25.6531 29.9044 25.9197 31.1044 25.9197Z" fill="#0A0A0A"/>
<path d="M0 28.4V0H3.44V13.8L1.68 12.44H17.52L15.76 13.8V0H19.2V28.4H15.76V14.44L17.52 15.8H1.68L3.44 14.44V28.4H0Z" fill="#0A0A0A"/>
</svg>
